<svg width="17" height="21" viewBox="0 0 17 21" fill="none" xmlns="http://www.w3.org/2000/svg">
<path fill-rule="evenodd" clip-rule="evenodd" d="M4.5263 20.2144C4.13209 19.9512 3.78205 19.6289 3.48952 19.2566C3.17031 18.871 2.87444 18.4654 2.60275 18.0456C1.96434 17.1128 1.46511 16.0925 1.11924 15.0173C0.702524 13.7663 0.5 12.5687 0.5 11.3968C0.5 10.0893 0.783366 8.94823 1.3351 7.99043C1.74348 7.24085 2.35188 6.61371 3.0853 6.17312C3.79372 5.7317 4.61881 5.49017 5.45224 5.47352C5.74394 5.47352 6.06065 5.51516 6.39402 5.59844C6.63572 5.66507 6.92742 5.77335 7.28579 5.90661C7.74418 6.08151 7.99421 6.18978 8.07755 6.21477C8.34425 6.31471 8.56927 6.35635 8.74429 6.35635C8.87764 6.35635 9.06933 6.31471 9.28186 6.24808C9.40271 6.20644 9.6319 6.13148 9.95694 5.98989C10.2786 5.87329 10.5337 5.77335 10.7362 5.69839C11.0446 5.60677 11.3429 5.52349 11.6113 5.48184C11.9363 5.43187 12.2589 5.41522 12.5681 5.4402C13.1598 5.48184 13.7015 5.60677 14.1849 5.79C15.035 6.13148 15.7209 6.66451 16.2327 7.42242C16.016 7.55568 15.816 7.71059 15.6284 7.88049C15.2226 8.23863 14.8783 8.66339 14.6033 9.13396C14.2449 9.77526 14.0616 10.4999 14.0666 11.2328C14.0791 12.1348 14.3083 12.9277 14.7667 13.6148C15.0892 14.1145 15.5201 14.5426 16.0451 14.894C16.3035 15.0689 16.5302 15.1897 16.7452 15.2688C16.6452 15.5812 16.5352 15.8852 16.4077 16.185C16.1185 16.8571 15.7743 17.5009 15.3659 18.1089C15.0059 18.6336 14.7225 19.0251 14.5075 19.2832C14.1724 19.683 13.8491 19.9828 13.524 20.1969C13.1656 20.4343 12.7448 20.56 12.3139 20.56C12.0222 20.5725 11.7305 20.535 11.4521 20.4542C11.2104 20.3751 10.9721 20.286 10.7387 20.1852C10.4945 20.0736 10.242 19.9787 9.98444 19.9021C9.66774 19.8188 9.3427 19.7788 9.01433 19.7796C8.68095 19.7796 8.35592 19.8213 8.04755 19.9004C7.78918 19.9737 7.53915 20.0636 7.29163 20.1711C6.94158 20.3168 6.71239 20.4126 6.57904 20.4542C6.30901 20.5342 6.03231 20.5825 5.75395 20.6C5.32056 20.6 4.91718 20.4751 4.51547 20.2252L4.5263 20.2144ZM10.2386 4.24011C9.6719 4.52329 9.13351 4.64322 8.59428 4.60324C8.51093 4.06521 8.59428 3.51219 8.8193 2.9067C9.01933 2.39032 9.28602 1.92392 9.65273 1.50748C10.0361 1.0744 10.4945 0.716263 11.0112 0.458075C11.5613 0.174902 12.0864 0.0249859 12.5864 0C12.6531 0.566348 12.5864 1.12437 12.3781 1.72403C12.188 2.25706 11.9047 2.74845 11.5446 3.18987C11.1821 3.62296 10.732 3.98109 10.2228 4.23928L10.2386 4.24011Z" fill="white"/>
</svg>
