<svg width="19" height="18" viewBox="0 0 19 18" fill="none" xmlns="http://www.w3.org/2000/svg">
<path d="M5.5 8H7.5V10H5.5V8Z" fill="black"/>
<path d="M7.5 11H5.5V13H7.5V11Z" fill="black"/>
<path d="M8.5 8H10.5V10H8.5V8Z" fill="black"/>
<path d="M10.5 11H8.5V13H10.5V11Z" fill="black"/>
<path d="M11.5 8H13.5V10H11.5V8Z" fill="black"/>
<path d="M13.5 11H11.5V13H13.5V11Z" fill="black"/>
<path fill-rule="evenodd" clip-rule="evenodd" d="M18.5 0.5C18.5 0.223858 18.2761 0 18 0H1C0.723858 0 0.5 0.223858 0.5 0.5V17.5C0.5 17.7761 0.723858 18 1 18H18C18.2761 18 18.5 17.7761 18.5 17.5V0.5ZM15.5 6H3.5V15H15.5V6Z" fill="black"/>
</svg>
