<svg width="54" height="32" viewBox="0 0 54 32" fill="none" xmlns="http://www.w3.org/2000/svg">
<path d="M0 27.3465C2.73824 29.9808 6.22327 31.997 10.947 31.997C16.7539 31.997 21.9174 28.982 24.8493 24.4995C27.7599 28.9954 32.9329 31.999 38.9022 32C47.1499 32 54 26.1989 54 16.9984C53.9971 16.1924 53.9511 15.3871 53.862 14.5861H45.4149V19.1181L48.666 19.1301C48.666 23.8556 44.5706 27.1005 39.1196 27.1005C32.3475 27.1005 27.4079 22.1079 27.4079 16.0383C27.4079 9.62205 32.8799 4.89804 38.6668 4.89804C41.6779 4.89804 45.0235 6.3967 47.5038 8.77746L50.2795 4.74352C47.2879 1.90221 42.7216 0.0195021 38.7252 0C32.8971 0 27.7573 3.03533 24.8522 7.55341C21.9263 3.04777 16.7802 0 11.0219 0C6.90858 0.0585064 3.11014 1.76869 0 4.72552L2.8882 8.54794C5.11808 6.3772 8.00628 4.93704 11.1164 4.93704C16.7478 4.93704 22.1343 9.65825 22.3477 15.6867C22.3451 15.8036 22.3438 15.9208 22.3438 16.0383C22.3438 16.1636 22.3453 16.2885 22.3483 16.4132C22.1418 22.4806 16.6764 27.12 11.0969 27.12C7.85332 27.12 5.05809 25.5448 2.8732 23.4326L0 27.3465Z" fill="white"/>
</svg>
