<svg width="20" height="20" viewBox="0 0 20 20" fill="none" xmlns="http://www.w3.org/2000/svg">
<path fill-rule="evenodd" clip-rule="evenodd" d="M10 20C15.5228 20 20 15.5228 20 10C20 4.47715 15.5228 0 10 0C4.47715 0 0 4.47715 0 10C0 15.5228 4.47715 20 10 20ZM16.2071 7.41425C16.4024 7.21899 16.4024 6.90241 16.2071 6.70714L14.7929 5.29293C14.5976 5.09767 14.2811 5.09767 14.0858 5.29293L8.00001 11.3787L5.91422 9.29293C5.71896 9.09767 5.40238 9.09767 5.20711 9.29293L3.7929 10.7071C3.59764 10.9024 3.59764 11.219 3.7929 11.4143L7.64645 15.2678C7.84172 15.4631 8.1583 15.4631 8.35356 15.2678L16.2071 7.41425Z" fill="black"/>
</svg>
