<svg width="40" height="40" viewBox="0 0 40 40" fill="none" xmlns="http://www.w3.org/2000/svg">
<path d="M22.1214 20.0002L27.8555 25.7343C28.0508 25.9295 28.0508 26.2461 27.8555 26.4414L26.4413 27.8556C26.246 28.0509 25.9294 28.0509 25.7342 27.8556L20.0001 22.1215L14.2699 27.8517C14.0747 28.047 13.7581 28.047 13.5628 27.8517L12.1486 26.4375C11.9533 26.2422 11.9533 25.9256 12.1486 25.7304L17.8788 20.0002L12.1445 14.2658C11.9492 14.0705 11.9492 13.754 12.1445 13.5587L13.5587 12.1445C13.754 11.9492 14.0706 11.9492 14.2658 12.1445L20.0001 17.8789L25.7286 12.1504C25.9238 11.9551 26.2404 11.9551 26.4357 12.1504L27.8499 13.5646C28.0452 13.7598 28.0452 14.0764 27.8499 14.2717L22.1214 20.0002Z" fill="black"/>
</svg>
