<svg width="24" height="24" viewBox="0 0 24 24" fill="none" xmlns="http://www.w3.org/2000/svg">
<path d="M9 3.5C9 3.22386 9.22386 3 9.5 3H14.5C14.7761 3 15 3.22386 15 3.5V5H19.5C19.7761 5 20 5.22386 20 5.5V7.5C20 7.77614 19.7761 8 19.5 8H4.5C4.22386 8 4 7.77614 4 7.5V5.5C4 5.22386 4.22386 5 4.5 5H9V3.5Z" fill="black"/>
<path fill-rule="evenodd" clip-rule="evenodd" d="M18 9H6V20.5C6 20.7761 6.22386 21 6.5 21H17.5C17.7761 21 18 20.7761 18 20.5V9ZM11 12H9V18H11V12ZM13 12H15V18H13V12Z" fill="black"/>
</svg>
