<svg width="20" height="20" viewBox="0 0 20 20" fill="none" xmlns="http://www.w3.org/2000/svg">
<path d="M15.4395 0.146446C15.2442 -0.0488157 14.9276 -0.0488154 14.7323 0.146447L13.3181 1.56066C13.1229 1.75592 13.1229 2.0725 13.3181 2.26777L14.4647 3.41429L13.7551 4.12384L10.6078 0.976525C10.4125 0.781263 10.0959 0.781263 9.90068 0.976525L8.48647 2.39074C8.29121 2.586 8.29121 2.90258 8.48647 3.09785L11.6338 6.24516L6.24522 11.6337L3.09943 8.48794C2.90417 8.29268 2.58759 8.29268 2.39232 8.48794L0.978111 9.90215C0.782849 10.0974 0.782849 10.414 0.978111 10.6093L4.1239 13.755L3.41435 14.4646L2.26777 13.318C2.0725 13.1228 1.75592 13.1228 1.56066 13.318L0.146446 14.7322C-0.0488155 14.9275 -0.0488155 15.2441 0.146446 15.4393L4.56066 19.8536C4.75592 20.0488 5.0725 20.0488 5.26777 19.8536L6.68198 18.4393C6.87724 18.2441 6.87724 17.9275 6.68198 17.7322L5.53567 16.5859L6.24522 15.8764L9.39232 19.0235C9.58759 19.2187 9.90417 19.2187 10.0994 19.0235L11.5136 17.6093C11.7089 17.414 11.7089 17.0974 11.5136 16.9022L8.36654 13.755L13.7551 8.36648L16.9007 11.5121C17.0959 11.7073 17.4125 11.7073 17.6078 11.5121L19.022 10.0978C19.2173 9.90258 19.2173 9.586 19.022 9.39074L15.8764 6.24516L16.586 5.53561L17.7323 6.68198C17.9276 6.87724 18.2442 6.87724 18.4395 6.68198L19.8537 5.26777C20.0489 5.0725 20.0489 4.75592 19.8537 4.56066L15.4395 0.146446Z" fill="#02BFB3"/>
</svg>
