<svg width="22" height="20" viewBox="0 0 22 20" fill="none" xmlns="http://www.w3.org/2000/svg">
<path fill-rule="evenodd" clip-rule="evenodd" d="M6.50693 3.38571L3.3536 0.232384C3.15833 0.037122 2.84175 0.037122 2.64649 0.232384L1.23228 1.6466C1.03701 1.84186 1.03701 2.15844 1.23228 2.3537L3.81648 4.93791C2.17668 6.19749 0.875834 7.87777 0.0738879 9.81705C0.0255008 9.93406 0.0255009 10.0658 0.0738881 10.1828C1.84926 14.476 6.06976 17.4999 11 17.4999C12.591 17.4999 14.108 17.1851 15.4928 16.6143L18.6465 19.7679C18.8418 19.9632 19.1583 19.9632 19.3536 19.7679L20.7678 18.3537C20.9631 18.1584 20.9631 17.8419 20.7678 17.6466L18.1834 15.0621L18.1843 15.0614L15.4347 12.3117L15.4341 12.3129L12.9962 9.875L12.9961 9.87314L11.1268 8.00388L11.125 8.00376L8.68711 5.5659L8.68826 5.5653L6.50816 3.3852L6.50693 3.38571ZM6.56586 7.68729C6.20443 8.37888 6.00005 9.16553 6.00005 9.99992C6.00005 12.7613 8.23862 14.9999 11 14.9999C11.8344 14.9999 12.6211 14.7955 13.3127 14.4341L10.8746 11.9961C9.86996 11.9339 9.06608 11.13 9.00392 10.1253L6.56586 7.68729Z" fill="#AEAEB2"/>
<path d="M15.9998 10.0484L16 9.99992C16 7.2385 13.7615 4.99992 11 4.99992L10.9515 5.00015L8.67947 2.72808C9.42973 2.57842 10.2057 2.49992 11 2.49992C15.9303 2.49992 20.1508 5.5238 21.9262 9.81705C21.9746 9.93406 21.9746 10.0658 21.9262 10.1828C21.3838 11.4945 20.6131 12.6877 19.6637 13.7123L15.9998 10.0484Z" fill="#AEAEB2"/>
</svg>
