<svg width="22" height="16" viewBox="0 0 22 16" fill="none" xmlns="http://www.w3.org/2000/svg">
<path d="M13 8C13 9.10457 12.1046 10 11 10C9.89543 10 9 9.10457 9 8C9 6.89543 9.89543 6 11 6C12.1046 6 13 6.89543 13 8Z" fill="#AEAEB2"/>
<path fill-rule="evenodd" clip-rule="evenodd" d="M0.0738415 8.18288C0.0254544 8.06587 0.0254543 7.93413 0.0738414 7.81712C1.84922 3.52388 6.06972 0.5 11 0.5C15.9303 0.5 20.1508 3.52388 21.9262 7.81712C21.9745 7.93413 21.9745 8.06587 21.9262 8.18288C20.1508 12.4761 15.9303 15.5 11 15.5C6.06972 15.5 1.84922 12.4761 0.0738415 8.18288ZM11 13C8.23858 13 6 10.7614 6 8C6 5.23858 8.23858 3 11 3C13.7614 3 16 5.23858 16 8C16 10.7614 13.7614 13 11 13Z" fill="#AEAEB2"/>
</svg>
