<svg width="24" height="24" viewBox="0 0 24 24" fill="none" xmlns="http://www.w3.org/2000/svg">
<path d="M17.5 12C19.9853 12 22 9.98528 22 7.5C22 5.01472 19.9853 3 17.5 3C15.5407 3 13.8738 4.25221 13.2561 6H3.5C3.22386 6 3 6.22386 3 6.5V8.5C3 8.77614 3.22386 9 3.5 9H13.2561C13.8738 10.7478 15.5407 12 17.5 12Z" fill="black"/>
<path d="M10.7439 18C10.1262 19.7478 8.45933 21 6.5 21C4.01472 21 2 18.9853 2 16.5C2 14.0147 4.01472 12 6.5 12C8.45933 12 10.1262 13.2522 10.7439 15H20.5C20.7761 15 21 15.2239 21 15.5V17.5C21 17.7761 20.7761 18 20.5 18H10.7439Z" fill="black"/>
</svg>
