<svg width="18" height="20" viewBox="0 0 18 20" fill="none" xmlns="http://www.w3.org/2000/svg">
<path d="M12.5 20.001C12.5 20.001 17.5 20.001 17.5 13.001C17.5 8.9697 14.2498 4.68448 12.9904 3.17529C12.7616 2.90123 12.3368 2.96851 12.1888 3.29335L10.5 7.00096L7.34877 0.291345C7.1896 -0.0475643 6.73439 -0.0994317 6.51444 0.203584C5.00576 2.28207 0.5 8.00098 0.5 13.001C0.5 20.001 5.5 20.001 5.5 20.001H5.51453C5.70763 17.5284 7.77404 14.5901 8.63095 13.4679C8.81993 13.2205 9.18007 13.2205 9.36905 13.4679C10.226 14.5901 12.2924 17.5284 12.4855 20.001H12.5Z" fill="#FA6A2D"/>
</svg>
