<svg width="17" height="16" viewBox="0 0 17 16" fill="none" xmlns="http://www.w3.org/2000/svg">
<path d="M16.1835 8.18387C16.1835 7.64007 16.1394 7.09333 16.0453 6.55835H8.49976V9.6389H12.8208C12.6414 10.6324 12.0653 11.5113 11.2217 12.0698V14.0687H13.7996C15.3134 12.6754 16.1835 10.6177 16.1835 8.18387Z" fill="#4285F4"/>
<path d="M8.49971 16C10.6573 16 12.4768 15.2916 13.8025 14.0688L11.2246 12.07C10.5074 12.5579 9.58143 12.8342 8.50265 12.8342C6.41564 12.8342 4.64608 11.4262 4.01116 9.5332H1.35095V11.5938C2.70898 14.2951 5.47501 16 8.49971 16Z" fill="#34A853"/>
<path d="M4.00824 9.53314C3.67314 8.5396 3.67314 7.46376 4.00824 6.47023V4.40967H1.35097C0.216342 6.67011 0.216342 9.33326 1.35097 11.5937L4.00824 9.53314Z" fill="#FBBC04"/>
<path d="M8.49971 3.16633C9.64022 3.1487 10.7425 3.57786 11.5685 4.36563L13.8525 2.08167C12.4062 0.723645 10.4868 -0.0229766 8.49971 0.000539092C5.47501 0.000539092 2.70898 1.70542 1.35095 4.40972L4.00822 6.47028C4.6402 4.57433 6.4127 3.16633 8.49971 3.16633Z" fill="#EA4335"/>
</svg>
