<svg width="19" height="18" viewBox="0 0 19 18" fill="none" xmlns="http://www.w3.org/2000/svg">
<path fill-rule="evenodd" clip-rule="evenodd" d="M12.9964 14.6178C11.715 15.4901 10.1671 16 8.5 16C4.08172 16 0.5 12.4183 0.5 8C0.5 3.58172 4.08172 0 8.5 0C12.9183 0 16.5 3.58172 16.5 8C16.5 9.66706 15.9901 11.215 15.1177 12.4964L18.1505 15.5292C18.3457 15.7244 18.3457 16.041 18.1505 16.2363L16.7362 17.6505C16.541 17.8457 16.2244 17.8457 16.0291 17.6505L12.9964 14.6178ZM13.5 8C13.5 10.7614 11.2614 13 8.5 13C5.73858 13 3.5 10.7614 3.5 8C3.5 5.23858 5.73858 3 8.5 3C11.2614 3 13.5 5.23858 13.5 8Z" fill="black"/>
</svg>
