<svg width="20" height="20" viewBox="0 0 20 20" fill="none" xmlns="http://www.w3.org/2000/svg">
<path fill-rule="evenodd" clip-rule="evenodd" d="M5 6V7H3.5C3.22386 7 3 7.22386 3 7.5V17.5C3 17.7761 3.22386 18 3.5 18H16.5C16.7761 18 17 17.7761 17 17.5V7.5C17 7.22386 16.7761 7 16.5 7H15V6C15 3.23858 12.7614 1 10 1C7.23858 1 5 3.23858 5 6ZM10 4C8.89543 4 8 4.89543 8 6V7H12V6C12 4.89543 11.1046 4 10 4ZM10 14.5C11.1046 14.5 12 13.6046 12 12.5C12 11.3954 11.1046 10.5 10 10.5C8.89543 10.5 8 11.3954 8 12.5C8 13.6046 8.89543 14.5 10 14.5Z" fill="black"/>
</svg>
