<svg width="48" height="28" viewBox="0 0 48 28" fill="none" xmlns="http://www.w3.org/2000/svg">
<path d="M0 23.9282C2.39596 26.2332 5.44536 27.9974 9.57859 27.9974C14.6596 27.9974 19.1778 25.3593 21.7431 21.437C24.2899 25.3709 28.8163 27.9992 34.0394 28C41.2562 28 47.25 22.924 47.25 14.8736C47.2475 14.1683 47.2072 13.4637 47.1293 12.7628H39.738V16.7283L42.5827 16.7388C42.5827 20.8737 38.9993 23.7129 34.2297 23.7129C28.3041 23.7129 23.9819 19.3444 23.9819 14.0335C23.9819 8.4193 28.7699 4.28578 33.8334 4.28578C36.4682 4.28578 39.3956 5.59711 41.5658 7.68028L43.9946 4.15058C41.3769 1.66443 37.3814 0.0170644 33.8846 0C28.785 0 24.2877 2.65592 21.7457 6.60923C19.1855 2.6668 14.6826 0 9.6442 0C6.04501 0.0511931 2.72137 1.54761 0 4.13483L2.52717 7.47944C4.47832 5.58005 7.00549 4.31991 9.72686 4.31991C14.6543 4.31991 19.3676 8.45096 19.5543 13.7259C19.552 13.8282 19.5508 13.9307 19.5508 14.0335C19.5508 14.1431 19.5521 14.2525 19.5547 14.3615C19.3741 19.6705 14.5918 23.73 9.7098 23.73C6.87165 23.73 4.42583 22.3517 2.51405 20.5035L0 23.9282Z" fill="black"/>
</svg>
