<svg width="32" height="32" viewBox="0 0 32 32" fill="none" xmlns="http://www.w3.org/2000/svg">
<path d="M3.5 12C3.22386 12 3 12.2239 3 12.5V19.5C3 19.7761 3.22386 20 3.5 20H7.1275L15.2072 25.9025C15.5369 26.1434 16 25.9074 16 25.4985V6.49699C16 6.08804 15.5368 5.85204 15.2071 6.09301L7.12497 12H3.5Z" fill="white"/>
<path d="M26.885 10.998L23.9963 13.885L21.1164 10.9994L18.9993 13.1207L21.8764 16.0036L19.0007 18.8775L21.1151 21.0016L23.9935 18.1249L26.8636 21.0007L28.9807 18.8794L26.1134 16.0063L28.9993 13.1221L26.885 10.998Z" fill="white"/>
</svg>
