<svg width="132" height="160" viewBox="0 0 132 160" fill="none" xmlns="http://www.w3.org/2000/svg">
<path d="M131.5 160L64.5 160C64.2239 160 64 159.776 64 159.5V74.1945C64 74.0694 64.0469 73.9488 64.1314 73.8566L75 62V54L64.2059 46.1498C64.0765 46.0557 64 45.9054 64 45.7454V16.429C64 16.1822 64.1801 15.9723 64.424 15.9348L90 12V0.5C90 0.223858 90.2239 0 90.5 0H105.5C105.776 0 106 0.223858 106 0.5V12L131.576 15.9348C131.82 15.9723 132 16.1822 132 16.429V45.7454C132 45.9054 131.923 46.0557 131.794 46.1498L121 54V62L131.869 73.8566C131.953 73.9488 132 74.0694 132 74.1945V159.5C132 159.776 131.776 160 131.5 160Z" fill="#E5E5E5"/>
<path fill-rule="evenodd" clip-rule="evenodd" d="M11.1808 102.26L6.06633 86.9168C1.65232 73.6748 11.5086 60 25.4669 60H54.5326C68.4909 60 78.3472 73.6748 73.9331 86.9169L68.8188 102.26C75.7426 109.451 80 119.228 80 130C80 141.608 75.0564 152.06 67.1602 159.366C66.713 159.78 66.1225 160 65.5133 160H14.4867C13.8775 160 13.287 159.78 12.8398 159.366C4.94356 152.06 0 141.608 0 130C0 119.229 4.25722 109.452 11.1808 102.26ZM20.2966 82.1734C19.1202 78.6444 21.747 75 25.4669 75H54.5326C58.2525 75 60.8792 78.6444 59.7029 82.1734L55.9866 93.3223C51.0905 91.1853 45.6837 90 40 90C34.3161 90 28.9092 91.1854 24.0129 93.3225L20.2966 82.1734Z" fill="#CCCCCC"/>
</svg>
