<svg width="17" height="17" viewBox="0 0 17 17" fill="none" xmlns="http://www.w3.org/2000/svg">
<path d="M0 13.207V16.4999C0 16.7761 0.223858 16.9999 0.5 16.9999H3.79289C3.9255 16.9999 4.05268 16.9472 4.14645 16.8535L11.8515 9.14844C12.0467 8.95318 12.0467 8.63659 11.8515 8.44133L8.55859 5.14844C8.36333 4.95317 8.04675 4.95317 7.85149 5.14844L0.146447 12.8535C0.0526788 12.9472 0 13.0744 0 13.207Z" fill="black"/>
<path d="M10.1484 2.85152C9.95314 3.04679 9.95314 3.36337 10.1484 3.55863L13.4413 6.85152C13.6366 7.04679 13.9531 7.04679 14.1484 6.85152L15.8554 5.14449C16.0507 4.94923 16.0507 4.63265 15.8554 4.43739L12.5625 1.14449C12.3673 0.949231 12.0507 0.949232 11.8554 1.14449L10.1484 2.85152Z" fill="black"/>
</svg>
