<svg width="56" height="56" viewBox="0 0 56 56" fill="none" xmlns="http://www.w3.org/2000/svg">
<path d="M30 19.7366L30 21.4421C30 21.9038 29.5254 22.1649 29.1971 21.8839L25.1953 18.4587C24.9357 18.2365 24.9347 17.8002 25.1934 17.5766L29.1953 14.1177C29.5232 13.8342 30 14.095 30 14.5579L30 16.6733C35.3979 17.6199 39.5 22.3309 39.5 28C39.5 34.3513 34.3513 39.5 28 39.5C21.6487 39.5 16.5 34.3513 16.5 28C16.5 24.2367 18.3093 20.8955 21.0991 18.7999L22.9009 21.1986C20.8329 22.7519 19.5 25.2201 19.5 28C19.5 32.6944 23.3056 36.5 28 36.5C32.6944 36.5 36.5 32.6944 36.5 28C36.5 23.9945 33.7294 20.636 30 19.7366Z" fill="white"/>
<path d="M24.3359 24L22.0428 26.293L23.457 27.7073L24.2499 26.9144V32.0002H26.2499V24H24.3359Z" fill="white"/>
<path fill-rule="evenodd" clip-rule="evenodd" d="M30.2499 23.9004C29.2437 23.9004 28.4696 24.5313 27.9954 25.2662C27.5146 26.0115 27.2499 26.9809 27.2499 28.0004C27.2499 29.0199 27.5146 29.9893 27.9954 30.7345C28.4696 31.4695 29.2437 32.1004 30.2499 32.1004C31.2561 32.1004 32.0302 31.4695 32.5044 30.7345C32.9852 29.9893 33.2499 29.0199 33.2499 28.0004C33.2499 26.9809 32.9852 26.0115 32.5044 25.2662C32.0302 24.5313 31.2561 23.9004 30.2499 23.9004ZM29.2499 28.0004C29.2499 27.3078 29.4329 26.7272 29.676 26.3505C29.9257 25.9635 30.1515 25.9004 30.2499 25.9004C30.3483 25.9004 30.5741 25.9635 30.8238 26.3505C31.0669 26.7272 31.2499 27.3078 31.2499 28.0004C31.2499 28.693 31.0669 29.2736 30.8238 29.6503C30.5741 30.0373 30.3483 30.1004 30.2499 30.1004C30.1515 30.1004 29.9257 30.0373 29.676 29.6503C29.4329 29.2736 29.2499 28.693 29.2499 28.0004Z" fill="white"/>
</svg>
