<svg width="56" height="56" viewBox="0 0 56 56" fill="none" xmlns="http://www.w3.org/2000/svg">
<path d="M26 21.4421L26 19.7366C22.2706 20.636 19.5 23.9945 19.5 28C19.5 32.6944 23.3056 36.5 28 36.5C32.6944 36.5 36.5 32.6944 36.5 28C36.5 25.2201 35.1671 22.7519 33.0991 21.1986L34.9009 18.7999C37.6907 20.8955 39.5 24.2367 39.5 28C39.5 34.3513 34.3513 39.5 28 39.5C21.6487 39.5 16.5 34.3513 16.5 28C16.5 22.3309 20.6021 17.6199 26 16.6733L26 14.5579C26 14.095 26.4768 13.8342 26.8047 14.1177L30.8066 17.5766C31.0653 17.8002 31.0643 18.2365 30.8047 18.4587L26.8029 21.8839C26.4746 22.1649 26 21.9038 26 21.4421Z" fill="white"/>
<path fill-rule="evenodd" clip-rule="evenodd" d="M27.9916 25.2662C28.4657 24.5313 29.2399 23.9004 30.2461 23.9004C31.2523 23.9004 32.0264 24.5313 32.5006 25.2662C32.9814 26.0115 33.2461 26.9809 33.2461 28.0004C33.2461 29.0199 32.9814 29.9893 32.5006 30.7345C32.0264 31.4695 31.2523 32.1004 30.2461 32.1004C29.2399 32.1004 28.4657 31.4695 27.9916 30.7345C27.5108 29.9893 27.2461 29.0199 27.2461 28.0004C27.2461 26.9809 27.5108 26.0115 27.9916 25.2662ZM29.6722 26.3505C29.4291 26.7272 29.2461 27.3078 29.2461 28.0004C29.2461 28.693 29.4291 29.2736 29.6722 29.6503C29.9219 30.0373 30.1477 30.1004 30.2461 30.1004C30.3445 30.1004 30.5703 30.0373 30.82 29.6503C31.0631 29.2736 31.2461 28.693 31.2461 28.0004C31.2461 27.3078 31.0631 26.7272 30.82 26.3505C30.5703 25.9635 30.3445 25.9004 30.2461 25.9004C30.1477 25.9004 29.9219 25.9635 29.6722 26.3505Z" fill="white"/>
<path d="M22.039 26.293L24.332 24H26.2461V32.0002H24.2461V26.9144L23.4532 27.7073L22.039 26.293Z" fill="white"/>
</svg>
