<svg width="26" height="21" viewBox="0 0 26 21" fill="none" xmlns="http://www.w3.org/2000/svg">
<path d="M0.5 7C0.223858 7 0 7.22386 0 7.5V14.5C0 14.7761 0.223857 15 0.5 15H4.1275L12.2072 20.9025C12.5369 21.1434 13 20.9074 13 20.4985V1.49699C13 1.08804 12.5368 0.852038 12.2071 1.09301L4.12497 7H0.5Z" fill="white"/>
<path d="M23 10.9993C23 8.37463 21.9376 6.00099 20.2158 4.28005L22.3366 2.1582C24.5983 4.41879 26 7.54676 26 10.9993C26 14.4506 24.5992 17.5777 22.3388 19.8381L20.2175 17.7168C21.9383 15.996 23 13.623 23 10.9993Z" fill="white"/>
<path d="M18 11.0001C18 9.75776 17.4986 8.63543 16.6834 7.81957L18.8057 5.69922C20.1599 7.05462 21 8.93067 21 11.0001C21 13.0695 20.1599 14.9455 18.8057 16.3009L16.6834 14.1806C17.4986 13.3647 18 12.2424 18 11.0001Z" fill="white"/>
</svg>
