<svg width="18" height="18" viewBox="0 0 18 18" fill="none" xmlns="http://www.w3.org/2000/svg">
<path fill-rule="evenodd" clip-rule="evenodd" d="M7.48323 7.78957L4.67803 8.41244L6.57114 10.5359L6.30053 13.4089L9 12.2629L11.6995 13.4089L11.4289 10.5359L13.322 8.41244L10.5168 7.78957L9.00001 5.27154L7.48323 7.78957ZM0.866262 6.18574C0.0438451 6.36835 -0.279615 7.35967 0.278828 7.98607L3.46175 11.5563L3.01516 16.2974C2.93703 17.1269 3.78109 17.7376 4.55285 17.4099L9 15.522L13.4471 17.4099C14.2189 17.7376 15.063 17.1269 14.9848 16.2974L14.5383 11.5563L17.7212 7.98607C18.2796 7.35967 17.9562 6.36835 17.1337 6.18574L12.4229 5.13973L9.95024 1.03495C9.52058 0.32168 8.47942 0.321684 8.04976 1.03496L5.57718 5.13973L0.866262 6.18574Z" fill="black"/>
</svg>
