     <svg
          width="48"
          height="48"
          viewBox="0 0 48 48"
          fill="none"
          xmlns="http://www.w3.org/2000/svg"
        >
          <path
            d="M0 8C0 3.58172 3.58172 0 8 0H40C44.4183 0 48 3.58172 48 8V40C48 44.4183 44.4183 48 40 48H8C3.58172 48 0 44.4183 0 40V8Z"
            fill="#F5F6F6"
          />
          <path
            d="M29.4395 14.1464C29.2442 13.9512 28.9276 13.9512 28.7323 14.1464L27.3181 15.5607C27.1229 15.7559 27.1229 16.0725 27.3181 16.2678L28.4647 17.4143L27.7551 18.1238L24.6078 14.9765C24.4125 14.7813 24.0959 14.7813 23.9007 14.9765L22.4865 16.3907C22.2912 16.586 22.2912 16.9026 22.4865 17.0978L25.6338 20.2452L20.2452 25.6337L17.0994 22.4879C16.9042 22.2927 16.5876 22.2927 16.3923 22.4879L14.9781 23.9022C14.7828 24.0974 14.7828 24.414 14.9781 24.6093L18.1239 27.755L17.4143 28.4646L16.2678 27.318C16.0725 27.1228 15.7559 27.1228 15.5607 27.318L14.1464 28.7322C13.9512 28.9275 13.9512 29.2441 14.1464 29.4393L18.5607 33.8536C18.7559 34.0488 19.0725 34.0488 19.2678 33.8536L20.682 32.4393C20.8772 32.2441 20.8772 31.9275 20.682 31.7322L19.5357 30.5859L20.2452 29.8764L23.3923 33.0235C23.5876 33.2187 23.9042 33.2187 24.0994 33.0235L25.5136 31.6093C25.7089 31.414 25.7089 31.0974 25.5136 30.9022L22.3665 27.755L27.7551 22.3665L30.9007 25.5121C31.0959 25.7073 31.4125 25.7073 31.6078 25.5121L33.022 24.0978C33.2173 23.9026 33.2173 23.586 33.022 23.3907L29.8764 20.2452L30.586 19.5356L31.7323 20.682C31.9276 20.8772 32.2442 20.8772 32.4395 20.682L33.8537 19.2678C34.0489 19.0725 34.0489 18.7559 33.8537 18.5607L29.4395 14.1464Z"
            fill="#02BFB3"
          />
        </svg>