        <svg
          width="48"
          height="48"
          viewBox="0 0 48 48"
          fill="none"
          xmlns="http://www.w3.org/2000/svg"
        >
          <path
            d="M0 8C0 3.58172 3.58172 0 8 0H40C44.4183 0 48 3.58172 48 8V40C48 44.4183 44.4183 48 40 48H8C3.58172 48 0 44.4183 0 40V8Z"
            fill="#F5F6F6"
          />
          <path
            d="M31.3832 22.8199C31.6546 22.4942 31.4228 22 30.9986 22H25.0064L27.75 14.6752C27.8724 14.3484 27.6306 14 27.2813 14H20.6707C20.4553 14 20.264 14.1377 20.1959 14.3419L16.5261 25.3419C16.418 25.6657 16.6592 26 17.0008 26H23.5002L20.5338 34.3282C20.3464 34.8544 21.0323 35.245 21.3899 34.8157L31.3832 22.8199Z"
            fill="#2FB2EB"
          />
        </svg>