<svg width="14" height="17" viewBox="0 0 14 17" fill="none" xmlns="http://www.w3.org/2000/svg">
<path fill-rule="evenodd" clip-rule="evenodd" d="M10 0.5C10 0.223858 9.77614 0 9.5 0H4.5C4.22386 0 4 0.223858 4 0.5V1.5C4 1.77614 4.22386 2 4.5 2H6V3.07089C2.60771 3.55612 0 6.47353 0 10C0 13.866 3.13401 17 7 17C10.866 17 14 13.866 14 10C14 6.47353 11.3923 3.55612 8 3.07089V2H9.5C9.77614 2 10 1.77614 10 1.5V0.5ZM6.5 6C6.22386 6 6 6.22386 6 6.5V10.5C6 10.7761 6.22386 11 6.5 11H7.5C7.77614 11 8 10.7761 8 10.5V6.5C8 6.22386 7.77614 6 7.5 6H6.5Z" fill="#EBF5FF" fill-opacity="0.75"/>
</svg>
