<svg width="20" height="20" viewBox="0 0 20 20" fill="none" xmlns="http://www.w3.org/2000/svg">
<path fill-rule="evenodd" clip-rule="evenodd" d="M13 1.5C13 1.22386 12.7761 1 12.5 1H7.5C7.22386 1 7 1.22386 7 1.5V2.5C7 2.77614 7.22386 3 7.5 3H9V4.07089C5.60771 4.55612 3 7.47353 3 11C3 14.866 6.13401 18 10 18C13.866 18 17 14.866 17 11C17 7.47353 14.3923 4.55612 11 4.07089V3H12.5C12.7761 3 13 2.77614 13 2.5V1.5ZM9.5 7C9.22386 7 9 7.22386 9 7.5V11.5C9 11.7761 9.22386 12 9.5 12H10.5C10.7761 12 11 11.7761 11 11.5V7.5C11 7.22386 10.7761 7 10.5 7H9.5Z" fill="black"/>
</svg>
