<svg width="50" height="42" xmlns="http://www.w3.org/2000/svg">
  <path d="M7.175 38.34L5.076 42h44.155a28.757 28.757 0 01-3.499-10.536 27.537 27.537 0 01-.29-3.994c0-4.921 1.302-9.539 3.582-13.533.307-.562.634-1.113.976-1.652l-4.435.555 1.608-4.795-4.823 1.599.636-5.015-4.417 2.503-.361-5.04-3.84 3.31L33.023.529 29.907 4.52 27.633 0 25.36 4.52 22.242.529 20.9 5.403 17.06 2.09l-.361 5.041L12.28 4.63l.636 5.015-4.824-1.599 1.609 4.795-5.045-.632L7.175 16.6l-5.072.358 3.332 3.818L.53 22.111l4.016 3.098L0 27.469l4.547 2.261-4.016 3.1 4.904 1.335-3.332 3.818 5.072.358zm30.591-9.65c1.186 0 2.149.957 2.149 2.137 0 1.18-.963 2.137-2.149 2.137a2.143 2.143 0 01-2.15-2.137c0-1.18.963-2.137 2.15-2.137zm-6.755 0c1.187 0 2.15.957 2.15 2.137 0 1.18-.963 2.137-2.15 2.137a2.143 2.143 0 01-2.15-2.137c0-1.18.963-2.137 2.15-2.137z" fill="#FFF" fill-rule="evenodd"/>
</svg>
